<mxfile>
    <diagram id="PNHqGnw0U0EfWDAAApR2" name="Page-1">
        <mxGraphModel dx="330" dy="305" grid="1" gridSize="10" guides="1" tooltips="1" connect="1" arrows="1" fold="1" page="1" pageScale="1" pageWidth="827" pageHeight="1169" math="0" shadow="0">
            <root>
                <mxCell id="0"/>
                <mxCell id="1" parent="0"/>
                <mxCell id="3" value="InterfaceSamsung" style="swimlane;fontStyle=1;align=center;verticalAlign=top;childLayout=stackLayout;horizontal=1;startSize=26;horizontalStack=0;resizeParent=1;resizeParentMax=0;resizeLast=0;collapsible=1;marginBottom=0;" vertex="1" parent="1">
                    <mxGeometry x="280" y="80" width="160" height="52" as="geometry"/>
                </mxCell>
                <mxCell id="6" value="+ useTypeC()" style="text;strokeColor=none;fillColor=none;align=left;verticalAlign=top;spacingLeft=4;spacingRight=4;overflow=hidden;rotatable=0;points=[[0,0.5],[1,0.5]];portConstraint=eastwest;" vertex="1" parent="3">
                    <mxGeometry y="26" width="160" height="26" as="geometry"/>
                </mxCell>
                <mxCell id="7" value="InterfaceIphone" style="swimlane;fontStyle=1;align=center;verticalAlign=top;childLayout=stackLayout;horizontal=1;startSize=26;horizontalStack=0;resizeParent=1;resizeParentMax=0;resizeLast=0;collapsible=1;marginBottom=0;" vertex="1" parent="1">
                    <mxGeometry x="520" y="80" width="160" height="52" as="geometry"/>
                </mxCell>
                <mxCell id="8" value="+ useLightning()" style="text;strokeColor=none;fillColor=none;align=left;verticalAlign=top;spacingLeft=4;spacingRight=4;overflow=hidden;rotatable=0;points=[[0,0.5],[1,0.5]];portConstraint=eastwest;" vertex="1" parent="7">
                    <mxGeometry y="26" width="160" height="26" as="geometry"/>
                </mxCell>
                <mxCell id="9" value="Samsung" style="swimlane;fontStyle=1;align=center;verticalAlign=top;childLayout=stackLayout;horizontal=1;startSize=26;horizontalStack=0;resizeParent=1;resizeParentMax=0;resizeLast=0;collapsible=1;marginBottom=0;" vertex="1" parent="1">
                    <mxGeometry x="200" y="200" width="160" height="52" as="geometry"/>
                </mxCell>
                <mxCell id="10" value="+ useTypeC()" style="text;strokeColor=none;fillColor=none;align=left;verticalAlign=top;spacingLeft=4;spacingRight=4;overflow=hidden;rotatable=0;points=[[0,0.5],[1,0.5]];portConstraint=eastwest;" vertex="1" parent="9">
                    <mxGeometry y="26" width="160" height="26" as="geometry"/>
                </mxCell>
                <mxCell id="11" value="Iphone&#10;" style="swimlane;fontStyle=1;align=center;verticalAlign=top;childLayout=stackLayout;horizontal=1;startSize=26;horizontalStack=0;resizeParent=1;resizeParentMax=0;resizeLast=0;collapsible=1;marginBottom=0;" vertex="1" parent="1">
                    <mxGeometry x="600" y="200" width="160" height="52" as="geometry"/>
                </mxCell>
                <mxCell id="12" value="+ useLightning()" style="text;strokeColor=none;fillColor=none;align=left;verticalAlign=top;spacingLeft=4;spacingRight=4;overflow=hidden;rotatable=0;points=[[0,0.5],[1,0.5]];portConstraint=eastwest;" vertex="1" parent="11">
                    <mxGeometry y="26" width="160" height="26" as="geometry"/>
                </mxCell>
                <mxCell id="15" value="" style="endArrow=block;dashed=1;endFill=0;endSize=12;html=1;exitX=0.5;exitY=0;exitDx=0;exitDy=0;entryX=0.526;entryY=1.049;entryDx=0;entryDy=0;entryPerimeter=0;" edge="1" parent="1" source="9" target="6">
                    <mxGeometry width="160" relative="1" as="geometry">
                        <mxPoint x="330" y="260" as="sourcePoint"/>
                        <mxPoint x="490" y="260" as="targetPoint"/>
                    </mxGeometry>
                </mxCell>
                <mxCell id="16" value="" style="endArrow=block;dashed=1;endFill=0;endSize=12;html=1;exitX=0.5;exitY=0;exitDx=0;exitDy=0;entryX=0.481;entryY=1.159;entryDx=0;entryDy=0;entryPerimeter=0;" edge="1" parent="1" source="11" target="8">
                    <mxGeometry width="160" relative="1" as="geometry">
                        <mxPoint x="289.9999999999999" y="210" as="sourcePoint"/>
                        <mxPoint x="374.1600000000001" y="143.27400000000011" as="targetPoint"/>
                    </mxGeometry>
                </mxCell>
                <mxCell id="18" value="UsbTypeCAdapter" style="swimlane;fontStyle=1;align=center;verticalAlign=top;childLayout=stackLayout;horizontal=1;startSize=26;horizontalStack=0;resizeParent=1;resizeParentMax=0;resizeLast=0;collapsible=1;marginBottom=0;" vertex="1" parent="1">
                    <mxGeometry y="320" width="360" height="148" as="geometry"/>
                </mxCell>
                <mxCell id="19" value="+ samsungDevice: Samsung&#10;&#10;+ constructor(samsung: Samsung){&#10;this.samsungDevice: Samsung&#10;}&#10;&#10;" style="text;strokeColor=none;fillColor=none;align=left;verticalAlign=top;spacingLeft=4;spacingRight=4;overflow=hidden;rotatable=0;points=[[0,0.5],[1,0.5]];portConstraint=eastwest;" vertex="1" parent="18">
                    <mxGeometry y="26" width="360" height="84" as="geometry"/>
                </mxCell>
                <mxCell id="20" value="" style="line;strokeWidth=1;fillColor=none;align=left;verticalAlign=middle;spacingTop=-1;spacingLeft=3;spacingRight=3;rotatable=0;labelPosition=right;points=[];portConstraint=eastwest;" vertex="1" parent="18">
                    <mxGeometry y="110" width="360" height="8" as="geometry"/>
                </mxCell>
                <mxCell id="21" value="+ useLightning()" style="text;strokeColor=none;fillColor=none;align=left;verticalAlign=top;spacingLeft=4;spacingRight=4;overflow=hidden;rotatable=0;points=[[0,0.5],[1,0.5]];portConstraint=eastwest;" vertex="1" parent="18">
                    <mxGeometry y="118" width="360" height="30" as="geometry"/>
                </mxCell>
                <mxCell id="22" value="LightningAdapter" style="swimlane;fontStyle=1;align=center;verticalAlign=top;childLayout=stackLayout;horizontal=1;startSize=26;horizontalStack=0;resizeParent=1;resizeParentMax=0;resizeLast=0;collapsible=1;marginBottom=0;" vertex="1" parent="1">
                    <mxGeometry x="600" y="320" width="360" height="148" as="geometry"/>
                </mxCell>
                <mxCell id="23" value="+ iphoneDevice: Iphone&#10;&#10;+ constructor(iphone: Iphone){&#10;this.iphoneDevice: Iphone&#10;}&#10;&#10;" style="text;strokeColor=none;fillColor=none;align=left;verticalAlign=top;spacingLeft=4;spacingRight=4;overflow=hidden;rotatable=0;points=[[0,0.5],[1,0.5]];portConstraint=eastwest;" vertex="1" parent="22">
                    <mxGeometry y="26" width="360" height="84" as="geometry"/>
                </mxCell>
                <mxCell id="24" value="" style="line;strokeWidth=1;fillColor=none;align=left;verticalAlign=middle;spacingTop=-1;spacingLeft=3;spacingRight=3;rotatable=0;labelPosition=right;points=[];portConstraint=eastwest;" vertex="1" parent="22">
                    <mxGeometry y="110" width="360" height="8" as="geometry"/>
                </mxCell>
                <mxCell id="25" value="+ useTypeC()" style="text;strokeColor=none;fillColor=none;align=left;verticalAlign=top;spacingLeft=4;spacingRight=4;overflow=hidden;rotatable=0;points=[[0,0.5],[1,0.5]];portConstraint=eastwest;" vertex="1" parent="22">
                    <mxGeometry y="118" width="360" height="30" as="geometry"/>
                </mxCell>
                <mxCell id="26" value="" style="endArrow=block;dashed=1;endFill=0;endSize=12;html=1;exitX=0.449;exitY=-0.008;exitDx=0;exitDy=0;exitPerimeter=0;entryX=0;entryY=0.75;entryDx=0;entryDy=0;" edge="1" parent="1" source="18" target="3">
                    <mxGeometry width="160" relative="1" as="geometry">
                        <mxPoint x="289.9999999999999" y="210" as="sourcePoint"/>
                        <mxPoint x="162" y="80" as="targetPoint"/>
                        <Array as="points">
                            <mxPoint x="162" y="120"/>
                        </Array>
                    </mxGeometry>
                </mxCell>
                <mxCell id="27" value="" style="endArrow=block;dashed=1;endFill=0;endSize=12;html=1;exitX=0.56;exitY=-0.024;exitDx=0;exitDy=0;exitPerimeter=0;" edge="1" parent="1" source="22">
                    <mxGeometry width="160" relative="1" as="geometry">
                        <mxPoint x="171.6400000000001" y="328.81600000000003" as="sourcePoint"/>
                        <mxPoint x="680" y="120" as="targetPoint"/>
                        <Array as="points">
                            <mxPoint x="802" y="120"/>
                        </Array>
                    </mxGeometry>
                </mxCell>
                <mxCell id="28" value="Use" style="endArrow=open;endSize=12;dashed=1;html=1;exitX=0.75;exitY=0;exitDx=0;exitDy=0;entryX=0.429;entryY=1.036;entryDx=0;entryDy=0;entryPerimeter=0;" edge="1" parent="1" source="18" target="10">
                    <mxGeometry width="160" relative="1" as="geometry">
                        <mxPoint x="280" y="290" as="sourcePoint"/>
                        <mxPoint x="440" y="290" as="targetPoint"/>
                    </mxGeometry>
                </mxCell>
                <mxCell id="30" value="Use" style="endArrow=open;endSize=12;dashed=1;html=1;exitX=0.25;exitY=0;exitDx=0;exitDy=0;" edge="1" parent="1" source="22">
                    <mxGeometry width="160" relative="1" as="geometry">
                        <mxPoint x="280.0000000000001" y="330" as="sourcePoint"/>
                        <mxPoint x="690" y="255" as="targetPoint"/>
                    </mxGeometry>
                </mxCell>
            </root>
        </mxGraphModel>
    </diagram>
</mxfile>